<?xml version="1.0" encoding="UTF-8" standalone="no"?>
<!DOCTYPE svg PUBLIC "-//W3C//DTD SVG 1.1//EN" "http://www.w3.org/Graphics/SVG/1.1/DTD/svg11.dtd">
<svg width="100%" height="100%" viewBox="0 0 600 400" version="1.1" xmlns="http://www.w3.org/2000/svg" xmlns:xlink="http://www.w3.org/1999/xlink" xml:space="preserve" xmlns:serif="http://www.serif.com/" style="fill:rgb(219, 191, 93); fill-rule:evenodd;clip-rule:evenodd;stroke-linecap:round;stroke-linejoin:round;stroke-miterlimit:1.5; @font-face {font-family:'SouthernAirePersonalUseOnly';src:'./SouthernAire_Personal_Use_Only.woff' format('woff');}">
    <g transform="matrix(1,0,0,1,176.951,194.91)">
        <text x="0px" y="107.857px" style="fill:rgb(219, 191, 93); font-family:'SouthernAirePersonalUseOnly', 'Southern Aire Personal Use Only';font-size:158.333px;">S</text>
    </g>
    <g transform="matrix(1,0,0,1,74.1307,92.1433)">
        <text x="0px" y="107.857px" style="fill:rgb(219, 191, 93); font-family:'SouthernAirePersonalUseOnly', 'Southern Aire Personal Use Only';font-size:158.333px;">Y</text>
    </g>
    <g transform="matrix(1,0,0,1,166.27,157.117)">
        <text x="0px" y="56.767px" style="fill:rgb(219, 191, 93); font-family:'SouthernAirePersonalUseOnly', 'Southern Aire Personal Use Only';font-size:83.333px;">&amp;</text>
    </g>
    <g transform="matrix(0.786782,0.617231,-0.617231,0.786782,168.593,-134.337)">
        <g transform="matrix(0.518475,0.855093,-0.855093,0.518475,295.053,-264.203)">
            <text x="382.112px" y="129.876px" style="fill:rgb(219, 191, 93); font-family:'SouthernAirePersonalUseOnly', 'Southern Aire Personal Use Only';font-size:33.333px;">Y</text>
        </g>
        <g transform="matrix(0.488806,0.872393,-0.872393,0.488806,325.532,-267.259)">
            <text x="390.815px" y="144.143px" style="fill:rgb(219, 191, 93); font-family:'SouthernAirePersonalUseOnly', 'Southern Aire Personal Use Only';font-size:33.333px;">o</text>
        </g>
        <g transform="matrix(0.447617,0.894225,-0.894225,0.447617,353.509,-269.52)">
            <text x="394.911px" y="151.379px" style="fill:rgb(219, 191, 93); font-family:'SouthernAirePersonalUseOnly', 'Southern Aire Personal Use Only';font-size:33.333px;">n</text>
        </g>
        <g transform="matrix(0.410113,0.912034,-0.912034,0.410113,382.455,-269.552)">
            <text x="399.607px" y="160.884px" style="fill:rgb(219, 191, 93); font-family:'SouthernAirePersonalUseOnly', 'Southern Aire Personal Use Only';font-size:33.333px;">g</text>
        </g>
        <g transform="matrix(0.273817,0.961782,-0.961782,0.273817,463.564,-263.39)">
            <text x="406.203px" y="175.285px" style="fill:rgb(219, 191, 93); font-family:'SouthernAirePersonalUseOnly', 'Southern Aire Personal Use Only';font-size:33.333px;">Y</text>
        </g>
        <g transform="matrix(0.239956,0.970784,-0.970784,0.239956,498.09,-253.35)">
            <text x="410.844px" y="191.424px" style="fill:rgb(219, 191, 93); font-family:'SouthernAirePersonalUseOnly', 'Southern Aire Personal Use Only';font-size:33.333px;">o</text>
        </g>
        <g transform="matrix(0.194156,0.980971,-0.980971,0.194156,528.419,-244.254)">
            <text x="412.877px" y="199.5px" style="fill:rgb(219, 191, 93); font-family:'SouthernAirePersonalUseOnly', 'Southern Aire Personal Use Only';font-size:33.333px;">n</text>
        </g>
        <g transform="matrix(0.153553,0.98814,-0.98814,0.153553,558.531,-232.321)">
            <text x="414.871px" y="209.853px" style="fill:rgb(219, 191, 93); font-family:'SouthernAirePersonalUseOnly', 'Southern Aire Personal Use Only';font-size:33.333px;">g</text>
        </g>
        <g transform="matrix(0.0578109,0.998328,-0.998328,0.0578109,618.033,-203.696)">
            <text x="416.933px" y="225.581px" style="fill:rgb(219, 191, 93); font-family:'SouthernAirePersonalUseOnly', 'Southern Aire Personal Use Only';font-size:33.333px;">u</text>
        </g>
        <g transform="matrix(0.00317132,0.999995,-0.999995,0.00317132,652.629,-181.903)">
            <text x="417.555px" y="236.399px" style="fill:rgb(219, 191, 93); font-family:'SouthernAirePersonalUseOnly', 'Southern Aire Personal Use Only';font-size:33.333px;">n</text>
        </g>
        <g transform="matrix(-0.0637365,0.997967,-0.997967,-0.0637365,690.717,-154.168)">
            <text x="417.677px" y="246.921px" style="fill:rgb(219, 191, 93); font-family:'SouthernAirePersonalUseOnly', 'Southern Aire Personal Use Only';font-size:33.333px;">d</text>
        </g>
        <g transform="matrix(-0.185108,0.982718,-0.982718,-0.185108,752.734,-98.2496)">
            <text x="417.102px" y="262.967px" style="fill:rgb(219, 191, 93); font-family:'SouthernAirePersonalUseOnly', 'Southern Aire Personal Use Only';font-size:33.333px;">S</text>
        </g>
        <g transform="matrix(-0.306471,0.95188,-0.95188,-0.306471,812.516,-18.7974)">
            <text x="413.106px" y="286.596px" style="fill:rgb(219, 191, 93); font-family:'SouthernAirePersonalUseOnly', 'Southern Aire Personal Use Only';font-size:33.333px;">t</text>
        </g>
        <g transform="matrix(-0.281279,0.959626,-0.959626,-0.281279,807.255,-19.8149)">
            <text x="411.048px" y="292.393px" style="fill:rgb(219, 191, 93); font-family:'SouthernAirePersonalUseOnly', 'Southern Aire Personal Use Only';font-size:33.333px;">e</text>
        </g>
        <g transform="matrix(-0.306839,0.951761,-0.951761,-0.306839,819.827,3.20846)">
            <text x="408.745px" y="300.141px" style="fill:rgb(219, 191, 93); font-family:'SouthernAirePersonalUseOnly', 'Southern Aire Personal Use Only';font-size:33.333px;">p</text>
        </g>
        <g transform="matrix(-0.383784,0.923423,-0.923423,-0.383784,847.332,54.4801)">
            <text x="405.488px" y="309.96px" style="fill:rgb(219, 191, 93); font-family:'SouthernAirePersonalUseOnly', 'Southern Aire Personal Use Only';font-size:33.333px;">h</text>
        </g>
        <g transform="matrix(-0.425708,0.904861,-0.904861,-0.425708,861.704,92.8107)">
            <text x="401.4px" y="319.856px" style="fill:rgb(219, 191, 93); font-family:'SouthernAirePersonalUseOnly', 'Southern Aire Personal Use Only';font-size:33.333px;">a</text>
        </g>
        <g transform="matrix(-0.471877,0.881665,-0.881665,-0.471877,874.481,133.218)">
            <text x="397.341px" y="328.519px" style="fill:rgb(219, 191, 93); font-family:'SouthernAirePersonalUseOnly', 'Southern Aire Personal Use Only';font-size:33.333px;">n</text>
        </g>
    </g>
    <g transform="matrix(0.922825,-0.38522,0.38522,0.922825,-92.3911,67.3026)">
        <g transform="matrix(0.565833,0.82452,-0.82452,0.565833,261.105,-244.39)">
            <text x="362.611px" y="125.735px" style="fill:rgb(219, 191, 93); font-family:'SouthernAirePersonalUseOnly', 'Southern Aire Personal Use Only';font-size:33.333px;">0</text>
        </g>
        <g transform="matrix(0.532887,0.846186,-0.846186,0.532887,283.314,-248.814)">
            <text x="367.024px" y="132.208px" style="fill:rgb(219, 191, 93); font-family:'SouthernAirePersonalUseOnly', 'Southern Aire Personal Use Only';font-size:33.333px;">2</text>
        </g>
        <g transform="matrix(0.505519,0.862815,-0.862815,0.505519,303.131,-251.56)">
            <text x="371.038px" y="138.685px" style="fill:rgb(219, 191, 93); font-family:'SouthernAirePersonalUseOnly', 'Southern Aire Personal Use Only';font-size:33.333px;">.</text>
        </g>
        <g transform="matrix(0.475879,0.879511,-0.879511,0.475879,320.346,-253.633)">
            <text x="372.98px" y="141.965px" style="fill:rgb(219, 191, 93); font-family:'SouthernAirePersonalUseOnly', 'Southern Aire Personal Use Only';font-size:33.333px;">0</text>
        </g>
        <g transform="matrix(0.438755,0.898607,-0.898607,0.438755,345.158,-254.952)">
            <text x="376.68px" y="148.839px" style="fill:rgb(219, 191, 93); font-family:'SouthernAirePersonalUseOnly', 'Southern Aire Personal Use Only';font-size:33.333px;">8</text>
        </g>
        <g transform="matrix(0.411854,0.91125,-0.91125,0.411854,365.335,-254.687)">
            <text x="379.968px" y="155.674px" style="fill:rgb(219, 191, 93); font-family:'SouthernAirePersonalUseOnly', 'Southern Aire Personal Use Only';font-size:33.333px;">.</text>
        </g>
        <g transform="matrix(0.383784,0.923423,-0.923423,0.383784,382.038,-254.265)">
            <text x="381.532px" y="159.117px" style="fill:rgb(219, 191, 93); font-family:'SouthernAirePersonalUseOnly', 'Southern Aire Personal Use Only';font-size:33.333px;">2</text>
        </g>
        <g transform="matrix(0.341538,0.939868,-0.939868,0.341538,409.28,-251.913)">
            <text x="384.426px" y="166.141px" style="fill:rgb(219, 191, 93); font-family:'SouthernAirePersonalUseOnly', 'Southern Aire Personal Use Only';font-size:33.333px;">0</text>
        </g>
        <g transform="matrix(0.303522,0.952824,-0.952824,0.303522,434.984,-247.95)">
            <text x="387.097px" y="173.568px" style="fill:rgb(219, 191, 93); font-family:'SouthernAirePersonalUseOnly', 'Southern Aire Personal Use Only';font-size:33.333px;">2</text>
        </g>
        <g transform="matrix(0.259951,0.965622,-0.965622,0.259951,462.677,-242.218)">
            <text x="389.363px" y="180.743px" style="fill:rgb(219, 191, 93); fill:rgb(219, 191, 93); font-family:'SouthernAirePersonalUseOnly', 'Southern Aire Personal Use Only';font-size:33.333px;">5</text>
        </g>
    </g>
    <path d="M271.234,386.603C272.288,386.917 273.019,387.876 273.04,388.976C273.062,390.076 272.369,391.063 271.328,391.417C249.894,398.233 223.053,400 200,400C89.617,400 -0,310.383 0,200C0,89.617 89.617,-0 200,-0C310.383,-0 400.31,88.27 400.31,198.653L400.287,198.731C397.918,202.437 396.684,200.474 396.684,200.474C396.684,91.471 309.003,2.5 200,2.5C90.997,2.5 2.5,90.997 2.5,200C2.5,309.003 90.997,397.5 200,397.5C224.907,397.5 242.402,394.181 264.334,385.756C264.395,385.732 264.458,385.715 264.523,385.704C266.345,385.415 268.893,385.897 271.234,386.603Z" style="stroke:rgb(219, 191, 93);stroke-width:0.75px;"/>
    <g transform="matrix(0.975,0,0,0.9875,2.75794,2.10498e-14)">
        <path d="M271.656,386.76C249.403,395.313 225.245,400 200,400C89.617,400 -0,310.383 0,200C0,89.617 89.617,-0 200,-0C310.383,-0 400,89.617 400,200C399.925,202.708 398.219,202.034 397.552,200.826C397.513,200.754 397.494,200.673 397.497,200.592C397.513,200.092 397.582,198.152 397.582,198.152C397.582,89.148 309.003,2.5 200,2.5C90.997,2.5 2.5,90.997 2.5,200C2.5,309.003 90.997,397.5 200,397.5C224.94,397.5 248.806,392.867 270.78,384.418C271.066,385.204 271.359,385.987 271.656,386.76Z" style="fill:rgb(219, 191, 93);"/>
    </g>
</svg>
